<?xml version="1.0" standalone="no"?><!DOCTYPE svg PUBLIC "-//W3C//DTD SVG 1.1//EN" "http://www.w3.org/Graphics/SVG/1.1/DTD/svg11.dtd"><svg t="1536764407059" class="icon" style="" viewBox="0 0 1024 1024" version="1.1" xmlns="http://www.w3.org/2000/svg" p-id="16131" xmlns:xlink="http://www.w3.org/1999/xlink" width="88" height="88"><defs><style type="text/css"></style></defs><path d="M896 0c0 0-185.25 51-353.594 96-21.094 0.813-42.344 0-63.469 0C318.563 53 128 0 128 0 57.313 0 0 57.313 0 128l0 672c0 70.688 60.313 106 128 128 0 0 172.563 48 350.938 96l64.813 0C723.594 976 896 928 896 928c65.688-17 128-57.313 128-128L1024 128C1024 57.313 966.688 0 896 0zM480 959.938C305.219 912.969 128 864 128 864c-36.344-10-64-28.656-64-64L64 128c0-35.344 28.656-64 64-64l352 96L480 959.938zM960 800c0 35.344-29.656 53-64 64 0 0-174.188 48.469-352 95.25L544 160l352-96c35.344 0 64 28.656 64 64L960 800z" p-id="16132" fill="#2f89fc"></path></svg>