<?xml version="1.0" standalone="no"?><!DOCTYPE svg PUBLIC "-//W3C//DTD SVG 1.1//EN" "http://www.w3.org/Graphics/SVG/1.1/DTD/svg11.dtd"><svg t="1536764571418" class="icon" style="" viewBox="0 0 1024 1024" version="1.1" xmlns="http://www.w3.org/2000/svg" p-id="19722" xmlns:xlink="http://www.w3.org/1999/xlink" width="88" height="88"><defs><style type="text/css"></style></defs><path d="M512 921.6a25.408 25.408 0 0 1-18.88-7.488l-132.032-124.544a22.848 22.848 0 0 1 0-34.88 27.52 27.52 0 0 1 37.76 0L512 861.824l115.84-107.136a25.408 25.408 0 0 1 18.88-7.424h242.56c43.072 0 80.832-32.384 80.832-74.752V124.544c0-39.872-35.008-74.752-80.832-74.752H134.72c-43.072 0-80.832 32.384-80.832 74.752v547.968c0 42.368 35.008 74.752 80.832 74.752h137.472c16.128 0 26.88 9.92 26.88 24.896 0 14.912-10.752 24.96-26.88 24.96H134.72C59.264 797.056 0 742.208 0 672.448V124.544C0 54.784 59.264 0 134.72 0h754.56C962.048 0 1024 54.784 1024 124.544v550.464c0 67.2-59.264 124.544-134.72 124.544h-231.744l-126.72 117.12A53.12 53.12 0 0 1 512 921.6z" p-id="19723" fill="#2f89fc"></path><path d="M245.888 460.8A66.56 66.56 0 0 1 179.2 393.024a66.56 66.56 0 0 1 66.688-67.776 66.56 66.56 0 0 1 66.624 67.84A66.56 66.56 0 0 1 245.888 460.8z m253.312 0a66.56 66.56 0 0 1-66.688-67.776A66.56 66.56 0 0 1 499.2 325.248a66.56 66.56 0 0 1 66.688 67.84A66.56 66.56 0 0 1 499.2 460.8z m253.312 0a66.56 66.56 0 0 1-66.624-67.776 66.56 66.56 0 0 1 66.624-67.776 66.56 66.56 0 0 1 66.688 67.84A66.56 66.56 0 0 1 752.512 460.8z" p-id="19724" fill="#2f89fc"></path></svg>