<?xml version="1.0" standalone="no"?><!DOCTYPE svg PUBLIC "-//W3C//DTD SVG 1.1//EN" "http://www.w3.org/Graphics/SVG/1.1/DTD/svg11.dtd"><svg t="1540524813487" class="icon" style="" viewBox="0 0 1024 1024" version="1.1" xmlns="http://www.w3.org/2000/svg" p-id="6486" xmlns:xlink="http://www.w3.org/1999/xlink" width="88" height="88"><defs><style type="text/css"></style></defs><path d="M937.8 157.1L808 88.2l-34.5-20.3c-10.1-6.1-22.3-2-28.4 8.1-6.1 10.1-2 22.3 8.1 28.4l34.5 20.3 109.6 58.8c-286 12.2-517.3 237.4-539.6 523.4 0 10.1 6.1 20.3 16.2 20.3 12.2 2 22.3-6.1 22.3-18.3C416.5 445.2 631.5 234.2 897.3 224l-71 119.7-20.3 34.5c-6.1 10.1-2 22.3 8.1 28.4 10.1 6.1 22.3 2 28.4-8.1l20.3-34.5L952 213.9c12.2-20.3 4-44.6-14.2-56.8z m0 0" p-id="6487" fill="#8a8a8a"></path><path d="M937.8 453.3c-12.2 0-20.3 8.1-20.3 20.3V857c0 34.5-26.4 60.9-60.9 60.9H166.9c-34.5 0-60.9-26.4-60.9-60.9V207.9c0-34.5 26.4-60.9 60.9-60.9h277.9c12.2 0 20.3-8.1 20.3-20.3 0-12.2-8.1-20.3-20.3-20.3H166.9c-56.8 0-101.4 46.7-101.4 101.4V857c0 56.8 44.6 101.4 101.4 101.4h689.8c56.8 0 101.4-44.6 101.4-101.4V473.6c0-12.2-10.2-20.3-20.3-20.3z m0 0" p-id="6488" fill="#8a8a8a"></path></svg>