<?xml version="1.0" standalone="no"?><!DOCTYPE svg PUBLIC "-//W3C//DTD SVG 1.1//EN" "http://www.w3.org/Graphics/SVG/1.1/DTD/svg11.dtd"><svg t="1536761936690" class="icon" style="" viewBox="0 0 1024 1024" version="1.1" xmlns="http://www.w3.org/2000/svg" p-id="2375" xmlns:xlink="http://www.w3.org/1999/xlink" width="88" height="88"><defs><style type="text/css"></style></defs><path d="M314.423237 905.029046" p-id="2376" fill="#2f89fc"></path><path d="M709.576763 905.029046" p-id="2377" fill="#2f89fc"></path><path d="M554.489627 114.721992" p-id="2378" fill="#2f89fc"></path><path d="M958.141079 427.020747 958.141079 427.020747 633.095436 110.473029l0 0c-31.86722-29.742739-74.356846-48.863071-121.095436-48.863071-44.614108 0-87.103734 16.995851-118.970954 46.738589l0 0L67.983402 424.896266l0 0c-12.746888 10.622407-19.120332 25.493776-19.120332 42.489627 0 31.86722 25.493776 57.360996 57.360996 57.360996l0 0 0 348.414938c0 48.863071 38.240664 87.103734 87.103734 87.103734l180.580913 0 0 0c31.86722 0 57.360996-25.493776 57.360996-57.360996l0 0 0-159.3361c0-44.614108 36.116183-80.73029 80.73029-80.73029 44.614108 0 80.73029 36.116183 80.73029 80.73029l0 159.3361c0 31.86722 25.493776 57.360996 57.360996 57.360996l180.580913 0c48.863071 0 87.103734-38.240664 87.103734-87.103734L917.775934 526.871369l0 0c31.86722 0 57.360996-25.493776 57.360996-57.360996C975.136929 452.514523 968.763485 437.643154 958.141079 427.020747zM888.033195 467.385892 888.033195 467.385892 888.033195 467.385892C888.033195 467.385892 888.033195 467.385892 888.033195 467.385892L888.033195 467.385892c-16.995851 0-29.742739 12.746888-29.742739 29.742739l0 361.161826c0 25.493776-21.244813 46.738589-46.738589 46.738589l-144.46473 0 0 0c-10.622407 0-16.995851-8.497925-16.995851-16.995851l0 0 0-142.340249c0-76.481328-61.609959-138.091286-138.091286-138.091286-76.481328 0-138.091286 61.609959-138.091286 138.091286l0 142.340249 0 0c0 10.622407-8.497925 16.995851-16.995851 16.995851l0 0L210.323651 905.029046c-25.493776 0-46.738589-21.244813-46.738589-46.738589l0-361.161826c0-16.995851-12.746888-29.742739-29.742739-29.742739l0 0 0 0c-6.373444 0-10.622407-4.248963-10.622407-10.622407 0-4.248963 2.124481-6.373444 4.248963-8.497925l0 0c0 0 212.448133-208.19917 303.80083-295.302905l0 0c21.244813-21.244813 48.863071-33.991701 80.73029-33.991701 31.86722 0 59.485477 12.746888 80.73029 33.991701l0 0 301.676349 295.302905c2.124481 2.124481 4.248963 4.248963 4.248963 8.497925C898.655602 463.136929 894.406639 467.385892 888.033195 467.385892z" p-id="2379" fill="#2f89fc"></path></svg>