<?xml version="1.0" standalone="no"?><!DOCTYPE svg PUBLIC "-//W3C//DTD SVG 1.1//EN" "http://www.w3.org/Graphics/SVG/1.1/DTD/svg11.dtd"><svg t="1532582357800" class="icon" style="" viewBox="0 0 1024 1024" version="1.1" xmlns="http://www.w3.org/2000/svg" p-id="1094" xmlns:xlink="http://www.w3.org/1999/xlink" width="200" height="200"><defs><style type="text/css"></style></defs><path d="M270 542c-44.1 0-80-35.9-80-80s35.9-80 80-80 80 35.9 80 80-35.9 80-80 80z m0-128c-26.5 0-48 21.5-48 48s21.5 48 48 48 48-21.5 48-48-21.5-48-48-48zM510 542c-44.1 0-80-35.9-80-80s35.9-80 80-80 80 35.9 80 80-35.9 80-80 80z m0-128c-26.5 0-48 21.5-48 48s21.5 48 48 48 48-21.5 48-48-21.5-48-48-48z" fill="#333333" p-id="1095"></path><path d="M750 542c-44.1 0-80-35.9-80-80s35.9-80 80-80c7.1 0 14.1 0.9 20.8 2.8 8.5 2.3 13.6 11.1 11.3 19.6-2.3 8.5-11.2 13.6-19.6 11.3-4-1.1-8.3-1.7-12.5-1.7-26.5 0-48 21.5-48 48s21.5 48 48 48 48-21.5 48-48c0-8.8-2.4-17.5-7-24.9-4.6-7.6-2.2-17.4 5.3-22 7.5-4.6 17.4-2.2 22 5.3C826 432.9 830 447.3 830 462c0 44.1-35.9 80-80 80z" fill="#0F82E4" p-id="1096"></path><path d="M944 448c-8.8 0-16-7.2-16-16V208c0-26.5-21.5-48-48-48H144c-26.5 0-48 21.5-48 48v224c0 8.8-7.2 16-16 16s-16-7.2-16-16V208c0-44.1 35.9-80 80-80h736c44.1 0 80 35.9 80 80v224c0 8.8-7.2 16-16 16zM274.6 929.1c-23.4 0-50.6-18.6-50.6-42.6V784h-80c-44.1 0-80-35.9-80-80V512c0-8.8 7.2-16 16-16s16 7.2 16 16v192c0 26.5 21.5 48 48 48h96c8.8 0 16 7.2 16 16v118.6c0 3 10.1 10.6 18.6 10.6 2.1 0 5.2-0.4 7.1-0.8l139.7-139.6c3-3 7.1-4.7 11.3-4.7H880c26.5 0 48-21.5 48-48V512c0-8.8 7.2-16 16-16s16 7.2 16 16v192c0 44.1-35.9 80-80 80H439.3L301.9 921.4c-1 1-2 1.8-3.2 2.5-8.7 5.1-22.6 5.2-24.1 5.2z" fill="#333333" p-id="1097"></path></svg>