<?xml version="1.0" standalone="no"?><!DOCTYPE svg PUBLIC "-//W3C//DTD SVG 1.1//EN" "http://www.w3.org/Graphics/SVG/1.1/DTD/svg11.dtd"><svg t="1536763422480" class="icon" style="" viewBox="0 0 1024 1024" version="1.1" xmlns="http://www.w3.org/2000/svg" p-id="6336" xmlns:xlink="http://www.w3.org/1999/xlink" width="88" height="88"><defs><style type="text/css"></style></defs><path d="M1013.409014 357.432997c0 76.132307-29.572899 147.762166-83.49995 201.484561l-372.884581 374.317178c-11.870091 11.870091-27.526332 18.316778-44.308184 18.316778l0 0c-16.781853 0-32.438093-6.446687-44.308184-18.316778l-374.317178-374.317178c-53.722394-53.722394-83.49995-125.352253-83.49995-201.484561s29.572899-147.762166 83.49995-201.484561 125.352253-83.49995 201.484561-83.49995 147.762166 29.572899 201.484561 83.49995c5.116419 5.116419 10.335165 10.539822 15.04227 16.167882 4.707105-5.62806 9.823524-10.949136 15.04227-16.167882 53.722394-53.722394 125.352253-83.49995 201.484561-83.49995s147.762166 29.572899 201.484561 83.49995C983.836115 209.67083 1013.409014 281.30069 1013.409014 357.432997z" p-id="6337" fill="#2f89fc"></path></svg>