<?xml version="1.0" standalone="no"?><!DOCTYPE svg PUBLIC "-//W3C//DTD SVG 1.1//EN" "http://www.w3.org/Graphics/SVG/1.1/DTD/svg11.dtd"><svg t="1540531173063" class="icon" style="" viewBox="0 0 1024 1024" version="1.1" xmlns="http://www.w3.org/2000/svg" p-id="16005" xmlns:xlink="http://www.w3.org/1999/xlink" width="88" height="88"><defs><style type="text/css"></style></defs><path d="M987.733333 273.066667C947.2 151.466667 836.266667 64 704 64c-66.133333 0-128 23.466667-179.2 59.733333-8.533333 6.4-19.2 6.4-25.6 0C448 87.466667 386.133333 64 320 64 187.733333 64 74.666667 151.466667 36.266667 273.066667c-10.666667 21.333333-14.933333 53.333333-14.933334 93.866666 0 228.266667 339.2 497.066667 452.266667 580.266667 21.333333 17.066667 53.333333 17.066667 74.666667 0C663.466667 864 1002.666667 595.2 1002.666667 366.933333c0-42.666667-4.266667-72.533333-14.933334-93.866666z m-462.933333 640c-6.4 4.266667-17.066667 4.266667-23.466667 0C352 804.266667 64 556.8 64 366.933333v-2.133333c0-34.133333 4.266667-59.733333 10.666667-74.666667v-4.266666C110.933333 179.2 209.066667 106.666667 320 106.666667c61.866667 0 123.733333 25.6 170.666667 66.133333l8.533333 6.4c8.533333 6.4 19.2 6.4 27.733333 0l12.8-10.666667C584.533333 128 644.266667 106.666667 704 106.666667c110.933333 0 209.066667 72.533333 243.2 179.2v4.266666c6.4 17.066667 10.666667 42.666667 10.666667 76.8 2.133333 189.866667-285.866667 437.333333-433.066667 546.133334z m-192-366.933334C198.4 465.066667 213.333333 334.933333 213.333333 330.666667c2.133333-12.8-6.4-23.466667-17.066666-23.466667-10.666667-2.133333-23.466667 6.4-23.466667 19.2 0 6.4-21.333333 162.133333 138.666667 258.133333 4.266667 2.133333 6.4 2.133333 10.666666 2.133334 6.4 0 14.933333-4.266667 19.2-10.666667 4.266667-10.666667 0-23.466667-8.533333-29.866667z" fill="#2f89fc" p-id="16006"></path></svg>