<?xml version="1.0" standalone="no"?><!DOCTYPE svg PUBLIC "-//W3C//DTD SVG 1.1//EN" "http://www.w3.org/Graphics/SVG/1.1/DTD/svg11.dtd"><svg t="1536763183075" class="icon" style="" viewBox="0 0 1024 1024" version="1.1" xmlns="http://www.w3.org/2000/svg" p-id="5525" xmlns:xlink="http://www.w3.org/1999/xlink" width="88" height="88"><defs><style type="text/css"></style></defs><path d="M320.128 896c-49.152 0-98.304-18.752-135.744-56.128-74.816-74.88-74.816-196.608 0-271.488l87.744-87.808c5.952-5.248 105.984-89.728 211.136-30.528 15.36 8.704 20.8 28.224 12.096 43.648C486.656 509.056 467.072 514.496 451.776 505.856 386.304 468.8 318.4 525.12 315.52 527.552L229.632 613.632c-49.92 49.856-49.92 131.136 0 180.992 49.856 49.856 131.136 49.856 180.992 0l87.744-87.744c12.48-12.48 32.768-12.48 45.248 0s12.48 32.768 0 45.248l-87.744 87.744C418.432 877.248 369.28 896 320.128 896zM752.128 588.736l87.744-87.744c74.88-74.88 74.88-196.672 0-271.488-74.88-74.88-196.608-74.88-271.488 0L480.64 317.312c-12.48 12.48-12.48 32.768 0 45.248s32.768 12.48 45.248 0l87.744-87.744c49.856-49.856 131.136-49.856 180.992 0 49.856 49.92 49.856 131.136 0 180.992l-85.888 86.08c-2.88 2.432-70.72 58.752-136.256 21.632C557.12 554.816 537.6 560.256 528.896 575.616c-8.704 15.36-3.264 35.008 12.096 43.648 27.072 15.232 53.76 20.992 78.656 20.992C691.392 640.256 747.776 592.64 752.128 588.736z" p-id="5526" fill="#2f89fc"></path></svg>