<?xml version="1.0" standalone="no"?><!DOCTYPE svg PUBLIC "-//W3C//DTD SVG 1.1//EN" "http://www.w3.org/Graphics/SVG/1.1/DTD/svg11.dtd"><svg t="1536761824582" class="icon" style="" viewBox="0 0 1024 1024" version="1.1" xmlns="http://www.w3.org/2000/svg" p-id="1601" xmlns:xlink="http://www.w3.org/1999/xlink" width="88" height="88"><defs><style type="text/css"></style></defs><path d="M288 456.864A63.264 63.264 0 0 0 256 448a64 64 0 1 0 0 128c11.712 0 22.56-3.392 32-8.896 19.04-11.072 32-31.488 32-55.104 0-23.648-12.96-44.064-32-55.136M544 456.864A63.264 63.264 0 0 0 512 448c-11.712 0-22.56 3.36-32 8.864-19.04 11.072-32 31.488-32 55.136 0 23.616 12.96 44.032 32 55.104 9.44 5.504 20.288 8.896 32 8.896s22.56-3.392 32-8.896c19.04-11.072 32-31.488 32-55.104 0-23.648-12.96-44.064-32-55.136M768 448c-11.712 0-22.56 3.392-32 8.864-19.04 11.104-32 31.52-32 55.136 0 23.616 12.96 44.032 32 55.136 9.44 5.472 20.288 8.864 32 8.864a64 64 0 1 0 0-128" p-id="1602" fill="#2f89fc"></path></svg>