<?xml version="1.0" standalone="no"?><!DOCTYPE svg PUBLIC "-//W3C//DTD SVG 1.1//EN" "http://www.w3.org/Graphics/SVG/1.1/DTD/svg11.dtd"><svg t="1536764817967" class="icon" style="" viewBox="0 0 1024 1024" version="1.1" xmlns="http://www.w3.org/2000/svg" p-id="23928" xmlns:xlink="http://www.w3.org/1999/xlink" width="88" height="88"><defs><style type="text/css"></style></defs><path d="M337.558527 328.922335c0-13.171997-10.710946-23.906479-23.882943-23.90648H139.789255c-39.949874 0-72.443939 32.495088-72.443939 72.444963v457.223442c0 39.949874 32.495088 72.468498 72.443939 72.468498h173.886329c13.171997 0 23.882943-10.735505 23.882943-23.907502 0-13.195533-10.710946-23.905456-23.882943-23.905456H139.789255c-13.58132 0-24.63098-11.04966-24.63098-24.65554v-457.223442c0-13.582343 11.048637-24.63098 24.63098-24.630981h173.886329c13.170974-0.001023 23.882943-10.735505 23.882943-23.907502zM598.942653 116.848265H425.056324c-39.949874 0-72.444962 32.494065-72.444963 72.444962V834.683237c0 39.949874 32.495088 72.468498 72.444963 72.468498h173.886329c39.948851 0 72.467475-32.518624 72.467475-72.468498V189.293227c0-39.950897-32.518624-72.444962-72.467475-72.444962z m24.654516 717.834972c0 13.605879-11.072173 24.65554-24.654516 24.655539H425.056324c-13.58132 0-24.654516-11.04966-24.654516-24.655539V189.293227c0-13.582343 11.073196-24.63098 24.654516-24.63098h173.886329c13.58132 0 24.654516 11.048637 24.654516 24.63098V834.683237z m260.61153-404.344095h-173.910889c-13.170974 0-23.88192 10.735505-23.88192 23.907503 0 13.195533 10.710946 23.905456 23.88192 23.905456h173.910889c13.58132 0 24.63098 11.04966 24.63098 24.63098v331.899132c0 13.605879-11.04966 24.65554-24.63098 24.65554h-173.910889c-13.170974 0-23.88192 10.710946-23.88192 23.905456 0 13.171997 10.710946 23.907503 23.88192 23.907503h173.910889c39.948851 0 72.444962-32.518624 72.444962-72.468499V502.784104c0-39.948851-32.496112-72.444962-72.444962-72.444962z m-655.064347 57.657165a6916.481569 6916.481569 0 0 0-33.001625 29.188786c-13.340843 11.991102-24.051789 22.702048-31.771611 31.845288l-0.072654 0.071632c-11.748578 14.257725-16.983813 24.100908-16.983813 31.843242 0 4.994758 1.809205 21.302165 25.089421 21.302165H269.69593c13.82282 0 22.74912-8.130168 22.74912-20.699438 0-12.424984-8.9263-20.433378-22.74912-20.433378h-61.490469l11.482519-11.242042c1.736551-1.688455 3.52222-3.426029 5.37952-5.162579 3.666506-3.37691 12.351306-11.192923 32.95353-29.214369 22.26612-19.274996 33.532721-39.081087 33.532721-58.935274 0-19.058055-7.718799-34.93158-22.314215-45.884027-12.930497-9.770528-29.045523-14.739702-47.910173-14.739702-20.263509 0-37.536918 6.779404-51.336202 20.144806-13.70207 13.220093-20.62576 28.514427-20.62576 45.449121 0 13.46057 8.467859 22.169929 21.567201 22.169929 9.336646 0 15.82543-7.309476 18.768459-21.10876 1.713015-8.008394 5.307889-14.08888 10.952447-18.503423l0.09619-0.071631c5.692652-4.656043 12.423961-6.924713 20.577665-6.924713 8.105608 0 14.739702 1.688455 19.685341 4.994757l0.12075 0.071632c4.945639 3.474125 7.261381 8.033977 7.261381 14.402011-0.001023 9.411347-6.466272 19.976984-19.252483 31.435967z m581.920466 195.501625c-7.261381 4.221138-15.487739 6.344498-24.436552 6.344499-17.803481 0-27.430746-6.344498-31.168883-20.481474l-0.048096-0.169869c-3.618411-12.592806-9.794064-18.984377-18.311041-18.984376-13.703093 0-21.881356 8.731872-21.881356 23.327288 0 18.333554 8.371668 33.579793 24.245193 44.171012 13.364379 8.997931 29.214369 13.557784 47.16316 13.557784 19.540032 0 36.885072-5.16258 51.576679-15.34243 17.151635-11.701506 26.222221-28.466332 26.222221-48.489364 0-17.996886-6.054903-32.615838-18.020422-43.423999l-5.331425-4.849448 5.307889-4.872984c10.253528-9.383718 15.439644-21.011546 15.439644-34.545794 0-19.515473-8.782014-35.438117-25.353435-46.051849l-0.097214-0.049118c-13.438057-8.274454-29.986965-12.44852-49.164746-12.44852-15.58393 0-30.010501 4.367471-42.821271 12.955056-15.07637 10.227945-23.037692 24.293289-23.037693 40.672328 0 13.461593 8.588609 22.146393 21.880334 22.146393 1.736551 0 3.449565-0.288572 5.065365-0.843204l6.971785 10.638291c-3.088338 3.377934-4.776793 7.961322-4.776793 12.906961 0 4.848425 1.76111 20.698414 24.485671 20.698415 25.499767 0 34.400484 4.704139 37.0795 6.77838 6.391571 4.994758 9.479909 11.627828 9.479908 20.289092 0.001023 4.583388-1.179872 10.5421-10.468422 16.06693z m-5.186116-88.945774c-6.079462 2.219551-16.670681 3.78828-31.457456 4.705162-4.391007 0.2415-8.275477 1.061169-11.556197 2.388396l-7.357571-10.469446c2.436492-2.726088 4.510734-6.417153 6.127557-10.90435l0.048096-0.096191c4.124947-12.158924 12.013615-17.58654 25.523303-17.58654 8.66024 0 16.211217 1.446955 22.410406 4.317328l0.12075 0.049119c6.369058 3.063779 9.190313 6.754844 9.190313 11.941983 0.001023 5.474688-1.542122 11.650341-13.049201 15.654539z m-286.546201-377.927446c-5.089925 0-9.67229 3.136433-18.816555 12.931521-6.537903 7.043417-10.927887 9.480932-13.461593 10.276041l-0.216941 0.072654-0.216941 0.049119c-1.663896 0.408299-3.40147 0.843204-5.114484 1.326205l-0.289596 0.072655c-15.848966 3.641947-17.561981 14.281261-17.561981 18.695804 0 12.592806 7.865131 20.433378 20.506033 20.433378 2.098801 0 4.317329-0.216941 6.609535-0.651846l7.817036-1.518586v126.192073c0 13.485129 8.033977 22.193465 20.433378 22.193465 12.930497 0 21.301142-8.709359 21.301142-22.193465V237.926878c0-13.148461-8.057513-21.302165-20.989033-21.302166z" fill="#2f89fc" p-id="23929"></path></svg>