<?xml version="1.0" standalone="no"?><!DOCTYPE svg PUBLIC "-//W3C//DTD SVG 1.1//EN" "http://www.w3.org/Graphics/SVG/1.1/DTD/svg11.dtd"><svg t="1547005884264" class="icon" style="" viewBox="0 0 1024 1024" version="1.1" xmlns="http://www.w3.org/2000/svg" p-id="4406" xmlns:xlink="http://www.w3.org/1999/xlink" width="80" height="80"><defs><style type="text/css"></style></defs><path d="M493.504 558.144a31.904 31.904 0 0 0 45.28 0l308.352-308.352a31.968 31.968 0 1 0-45.248-45.248l-285.728 285.728-294.176-294.144a31.968 31.968 0 1 0-45.248 45.248l316.768 316.768z" p-id="4407" fill="#707070"></path><path d="M801.888 460.576l-285.728 285.728-294.144-294.144a31.968 31.968 0 1 0-45.248 45.248l316.768 316.768a31.904 31.904 0 0 0 45.28 0l308.352-308.352a32 32 0 1 0-45.28-45.248z" p-id="4408" fill="#707070"></path></svg>