<?xml version="1.0" standalone="no"?><!DOCTYPE svg PUBLIC "-//W3C//DTD SVG 1.1//EN" "http://www.w3.org/Graphics/SVG/1.1/DTD/svg11.dtd"><svg t="1536764202644" class="icon" style="" viewBox="0 0 1024 1024" version="1.1" xmlns="http://www.w3.org/2000/svg" p-id="14511" xmlns:xlink="http://www.w3.org/1999/xlink" width="88" height="88"><defs><style type="text/css"></style></defs><path d="M956.769745 373.294545c-21.271273-0.791273-25.460364-21.690182-25.6-47.476363-0.325818-58.740364 0.372364-127.441455 0-186.181818-0.372364-57.716364-35.328-93.090909-93.090909-93.090909A872727.272727 872727.272727 0 0 0 139.897018 46.545455c-56.133818 0-93.090909 36.910545-93.090909 93.090909v744.727272c0 56.180364 36.910545 92.951273 93.090909 93.090909 109.614545 0.232727 232.727273 0 232.727273 0v46.545455H139.897018c-101.096727 0-139.031273-71.261091-139.636363-139.636364-0.884364-99.607273 0.930909-193.629091 0.930909-293.236363C1.145018 448.093091 3.239564 282.577455 0.260655 139.636364c-1.675636-80.430545 65.256727-139.636364 139.636363-139.636364h698.181818c59.485091 0 139.636364 18.571636 139.636364 139.636364 0 0 0.279273 119.761455 0 186.181818-0.093091 26.577455 0.558545 48.267636-20.945455 47.476363zM186.442473 628.363636a23.272727 23.272727 0 0 1 23.272727-23.272727h232.727273a23.272727 23.272727 0 1 1 0 46.545455h-232.727273a23.272727 23.272727 0 0 1-23.272727-23.272728zM209.7152 418.909091h325.818182a23.272727 23.272727 0 0 1 0 46.545454h-325.818182a23.272727 23.272727 0 0 1 0-46.545454z m0-186.181818h465.454545a23.272727 23.272727 0 0 1 0 46.545454h-465.454545a23.272727 23.272727 0 0 1 0-46.545454z m344.482909 497.012363c89.274182-83.549091 173.800727-172.218182 259.397818-259.630545 36.770909-37.655273 77.684364-49.617455 126.789818-29.230546 46.498909 19.316364 83.921455 73.634909 83.735273 122.647273 1.861818 31.185455-11.031273 57.669818-33.512727 80.756364-94.859636 97.326545-189.067636 195.304727-284.206546 292.398545-47.104 48.034909-109.195636 65.489455-172.683636 72.424728-47.709091 5.213091-81.454545-36.724364-72.145454-85.690182 13.730909-72.192 35.095273-139.822545 92.625454-193.675637z m405.969455-135.307636c5.771636-8.471273 5.352727-17.640727 5.725091-26.903273a74.845091 74.845091 0 0 0-48.593455-70.981818c-23.412364-9.169455-43.938909-5.864727-62.696727 12.986182-10.984727 10.984727-12.427636 17.687273-0.744728 28.625454 21.085091 19.735273 40.96 40.773818 61.44 61.160728 20.107636 20.014545 28.811636 18.850909 44.869819-4.887273z m-419.281455 358.632727c40.820364-14.754909 91.322182-19.456 127.069091-56.180363 70.516364-72.471273 139.822545-146.152727 210.013091-218.996364 9.960727-10.286545 10.007273-17.733818-0.139636-27.648a1445.236364 1445.236364 0 0 1-64.232728-65.536c-12.753455-14.149818-20.945455-14.010182-34.350545 0.186182a9133.056 9133.056 0 0 1-184.459637 190.603636c-44.497455 44.404364-61.253818 100.631273-74.472727 159.092364-2.746182 12.288 1.582545 20.200727 20.573091 18.478545z" p-id="14512" fill="#2f89fc"></path></svg>