<?xml version="1.0" standalone="no"?><!DOCTYPE svg PUBLIC "-//W3C//DTD SVG 1.1//EN" "http://www.w3.org/Graphics/SVG/1.1/DTD/svg11.dtd"><svg t="1540524017879" class="icon" style="" viewBox="0 0 1024 1024" version="1.1" xmlns="http://www.w3.org/2000/svg" p-id="3336" xmlns:xlink="http://www.w3.org/1999/xlink" width="88" height="88"><defs><style type="text/css"></style></defs><path d="M511.961114 941.329139a34.32783 34.32783 0 0 1-24.337291-10.086729l-93.037976-93.039c-13.46057-13.458523-18.577101-28.052916-5.116531-41.511439 13.458523-13.46057 30.099529-11.413957 43.558051 2.046612l78.934771 78.93477 74.840522-75.864851c6.436596-6.472412 19.273972-14.179954 28.431539-14.179954h240.968144c21.412682 0 52.844555-19.973914 52.844555-50.797943v-552.830941c0-23.165606-26.26827-52.844555-51.821249-52.844555h-691.550329c-22.747073 0-50.797943 24.562419-50.797943 51.821249v551.807634c0 26.730805 22.934339 51.821249 53.634548 51.82125h102.482069c19.001773 0 34.424021 7.199982 34.424021 26.237571 0 19.036565-15.422248 25.213241-34.424021 25.213241h-103.272061c-56.936757 0-103.272062-46.335305-103.272062-103.272062v-550.784328c0-56.936757 46.335305-103.272062 103.272062-103.272061h688.48041c56.936757 0 103.272062 46.335305 103.272061 103.272061v550.784328c0 56.936757-46.335305 103.272062-103.272061 103.272062H629.483738L536.298406 931.24241a34.32783 34.32783 0 0 1-24.337292 10.086729z m-206.729341-447.512267c-28.468378 0-51.636031-23.167652-51.636031-51.636031s23.167652-51.636031 51.636031-51.63603 51.636031 23.167652 51.636031 51.63603-21.12104 51.636031-49.589419 51.636031h-2.046612z m206.544123 0c-28.468378 0-51.636031-23.167652-51.636031-51.636031s23.167652-51.636031 51.636031-51.63603 51.636031 23.167652 51.636031 51.63603-21.12104 51.636031-49.589419 51.636031h-2.046612z m206.544123 0c-28.468378 0-51.636031-23.167652-51.636031-51.636031s23.167652-51.636031 51.636031-51.63603 51.636031 23.167652 51.636031 51.63603-21.12104 51.636031-49.589419 51.636031h-2.046612z" p-id="3337" fill="#8a8a8a"></path></svg>