<?xml version="1.0" standalone="no"?><!DOCTYPE svg PUBLIC "-//W3C//DTD SVG 1.1//EN" "http://www.w3.org/Graphics/SVG/1.1/DTD/svg11.dtd"><svg t="1536763012228" class="icon" style="" viewBox="0 0 1024 1024" version="1.1" xmlns="http://www.w3.org/2000/svg" p-id="4047" xmlns:xlink="http://www.w3.org/1999/xlink" width="88" height="88"><defs><style type="text/css"></style></defs><path d="M701.866667 85.333333s-149.333333-81.066667-326.4-19.2l326.4 326.4V85.333333z m27.733333 12.8v475.733334l228.266667-198.4c-51.2-198.4-228.266667-277.333333-228.266667-277.333334z m232.533333 302.933334L633.6 710.4h298.666667c87.466667-213.333333 29.866667-309.333333 29.866666-309.333333zM665.6 953.6c192-59.733333 245.333333-204.8 245.333333-204.8H467.2l198.4 204.8z m-343.466667-12.8s115.2 74.666667 311.466667 23.466667L322.133333 650.666667v290.133333z m-32-17.066667V465.066667L66.133333 665.6c89.6 211.2 224 258.133333 224 258.133333zM81.066667 324.266667c-72.533333 142.933333-21.333333 309.333333-21.333334 309.333333l328.533334-309.333333H81.066667zM341.333333 76.8C164.266667 145.066667 100.266667 292.266667 100.266667 292.266667h452.266666L341.333333 76.8z" p-id="4048" fill="#2f89fc"></path></svg>