<?xml version="1.0" standalone="no"?><!DOCTYPE svg PUBLIC "-//W3C//DTD SVG 1.1//EN" "http://www.w3.org/Graphics/SVG/1.1/DTD/svg11.dtd"><svg t="1547005974220" class="icon" style="" viewBox="0 0 1024 1024" version="1.1" xmlns="http://www.w3.org/2000/svg" p-id="4742" xmlns:xlink="http://www.w3.org/1999/xlink" width="80" height="80"><defs><style type="text/css"></style></defs><path d="M199.36 572.768a31.904 31.904 0 0 0 22.624-9.376l294.144-294.144 285.728 285.728a31.968 31.968 0 1 0 45.248-45.248l-308.352-308.352a32 32 0 0 0-45.28 0l-316.768 316.768a31.968 31.968 0 0 0 22.656 54.624z" p-id="4743" fill="#707070"></path><path d="M538.784 457.376a32 32 0 0 0-45.28 0l-316.768 316.768a31.968 31.968 0 1 0 45.248 45.248l294.144-294.144 285.728 285.728a31.968 31.968 0 1 0 45.248-45.248l-308.32-308.352z" p-id="4744" fill="#707070"></path></svg>