<?xml version="1.0" standalone="no"?><!DOCTYPE svg PUBLIC "-//W3C//DTD SVG 1.1//EN" "http://www.w3.org/Graphics/SVG/1.1/DTD/svg11.dtd"><svg t="1532582323711" class="icon" style="" viewBox="0 0 1024 1024" version="1.1" xmlns="http://www.w3.org/2000/svg" p-id="833" xmlns:xlink="http://www.w3.org/1999/xlink" width="200" height="200"><defs><style type="text/css"></style></defs><path d="M512 928c-45.8 0-90.6-7.7-133.3-22.8-8.3-2.9-12.7-12.1-9.8-20.4 2.9-8.4 12.1-12.7 20.4-9.8 39.3 14 80.6 21 122.7 21 197.5 0 359.3-156.5 367.7-352H512c-8.8 0-16-7.2-16-16V160.3C300.5 168.8 144 330.4 144 528c0 8.8-7.2 16-16 16s-16-7.2-16-16c0-220.6 179.4-400 400-400 8.8 0 16 7.2 16 16v368h368c8.8 0 16 7.2 16 16 0 220.6-179.4 400-400 400z" fill="#333333" p-id="834"></path><path d="M802.9 304c-4.8 0-9.5-2.1-12.7-6.2-42.9-55.4-105-91.3-174.7-101.3-8.8-1.3-14.8-9.3-13.6-18.1s9.3-14.7 18.1-13.6c78 11.1 147.5 51.4 195.5 113.3 5.4 7 4.1 17-2.8 22.5-2.9 2.3-6.4 3.4-9.8 3.4zM856.8 422.7c-7.5 0-14.2-5.3-15.7-12.9-0.4-2.1-0.8-4.2-1.3-6.2-3.5-15.9-8.5-31.4-14.8-46.2-1.5-3.6-3.1-7.1-4.7-10.6-3.8-8-0.4-17.5 7.6-21.3 8-3.8 17.5-0.4 21.3 7.6 1.8 3.9 3.6 7.8 5.3 11.8 7 16.6 12.6 34 16.5 51.7 0.5 2.3 1 4.7 1.5 7.1 1.7 8.7-4 17.1-12.6 18.8-1 0.1-2.1 0.2-3.1 0.2z" fill="#0F82E4" p-id="835"></path><path d="M432 864H112c-26.5 0-48-21.5-48-48V624c0-26.5 21.5-48 48-48h320c26.5 0 48 21.5 48 48v192c0 26.5-21.5 48-48 48zM112 608c-8.8 0-16 7.2-16 16v192c0 8.8 7.2 16 16 16h320c8.8 0 16-7.2 16-16V624c0-8.8-7.2-16-16-16H112z" fill="#333333" p-id="836"></path><path d="M384 688H160c-8.8 0-16-7.2-16-16s7.2-16 16-16h224c8.8 0 16 7.2 16 16s-7.2 16-16 16zM304 784H160c-8.8 0-16-7.2-16-16s7.2-16 16-16h144c8.8 0 16 7.2 16 16s-7.2 16-16 16zM688 512c-8.8 0-16 7.2-16 16 0 88.2-71.8 160-160 160-11 0-21.7-1.1-32-3.2v32.3c10.4 1.8 21.1 2.9 32 2.9 105.9 0 192-86.1 192-192 0-8.8-7.2-16-16-16zM359.4 576c-4.8-15.2-7.4-31.3-7.4-48 0-88.2 71.8-160 160-160 8.8 0 16-7.2 16-16s-7.2-16-16-16c-105.9 0-192 86.1-192 192 0 16.6 2.3 32.6 6.3 48h33.1z" fill="#333333" p-id="837"></path><path d="M960.2 544H512c-8.8 0-16-7.2-16-16V80c0-8.8 7.2-16.2 16-16.2C768 63.8 976.2 272 976.2 528c0 8.8-7.1 16-16 16zM528 512h415.9C935.7 286.4 753.6 104.3 528 96.1V512z" fill="#0F82E4" p-id="838"></path></svg>