<?xml version="1.0" standalone="no"?><!DOCTYPE svg PUBLIC "-//W3C//DTD SVG 1.1//EN" "http://www.w3.org/Graphics/SVG/1.1/DTD/svg11.dtd"><svg t="1536764950751" class="icon" style="" viewBox="0 0 1024 1024" version="1.1" xmlns="http://www.w3.org/2000/svg" p-id="26249" xmlns:xlink="http://www.w3.org/1999/xlink" width="88" height="88"><defs><style type="text/css"></style></defs><path d="M921.28 483.04h-149.44a101.92 101.92 0 0 0 10.56-44.96v-336A102.88 102.88 0 0 0 679.68 0h-336a102.88 102.88 0 0 0-102.08 102.72V395.2a28.96 28.96 0 1 0 57.76 0V102.72a44.96 44.96 0 0 1 44.96-44.96h336a44.96 44.96 0 0 1 44.96 44.96v336a44.96 44.96 0 0 1-44.8 44.96H102.72A102.88 102.88 0 0 0 0 585.92v336A102.88 102.88 0 0 0 102.72 1024h336A102.4 102.4 0 0 0 512 992a102.4 102.4 0 0 0 73.92 32H878.4a28.96 28.96 0 0 0 0-57.76H585.92a44.96 44.96 0 0 1-44.96-44.96v-336a44.96 44.96 0 0 1 44.8-44.96h336a44.96 44.96 0 0 1 44.96 44.96v283.04a28.96 28.96 0 1 0 57.76 0V585.92a102.88 102.88 0 0 0-103.2-102.88zM483.2 585.92v335.36a44.96 44.96 0 0 1-44.96 44.96h-336a44.96 44.96 0 0 1-44.96-44.96v-336a44.96 44.96 0 0 1 45.44-44.48h391.04a101.92 101.92 0 0 0-10.56 45.12z" p-id="26250" fill="#2f89fc"></path><path d="M515.2 205.92v161.12q0 7.68 7.84 7.84a7.04 7.04 0 0 0 8-7.84V180a16 16 0 0 0-2.24-8.48 10.24 10.24 0 0 0-5.44-4.8 9.6 9.6 0 0 0-8.48 1.44 39.68 39.68 0 0 0-8.16 8l-40.64 50.08a8.48 8.48 0 0 0-1.92 7.68 8.8 8.8 0 0 0 3.84 5.76 4.96 4.96 0 0 0 5.28 0 16 16 0 0 0 4.32-3.52l32-39.04a28.64 28.64 0 0 1 4-4.32 1.44 1.44 0 0 1 1.6 0s0 1.12 0.96 2.4v5.76zM312.64 838.24h-64a16 16 0 0 1-8.64-1.44 6.88 6.88 0 0 1-3.04-4.64 37.92 37.92 0 0 1 2.88-13.92 167.84 167.84 0 0 1 6.4-18.08 68.16 68.16 0 0 1 10.56-16 110.72 110.72 0 0 1 16-16q8.48-6.72 19.68-14.56a142.08 142.08 0 0 0 14.88-14.56 57.44 57.44 0 0 0 9.76-16.96 50.56 50.56 0 0 0 4-18.08 67.2 67.2 0 0 0-1.92-16 53.6 53.6 0 0 0-6.08-14.4 46.4 46.4 0 0 0-10.88-12.32 44.64 44.64 0 0 0-16.96-8 59.04 59.04 0 0 0-20.64-1.6 57.28 57.28 0 0 0-16 4.32 50.56 50.56 0 0 0-14.4 9.92 41.6 41.6 0 0 0-10.56 17.6 85.76 85.76 0 0 0-4.16 22.4 23.84 23.84 0 0 0 1.12 10.08 8.32 8.32 0 0 0 4.64 4.64 6.4 6.4 0 0 0 6.08 0 10.4 10.4 0 0 0 4.32-5.76l0.96-16a32 32 0 0 1 2.88-10.88 34.88 34.88 0 0 1 7.52-10.72 31.04 31.04 0 0 1 11.36-7.2 40.32 40.32 0 0 1 12.48-2.4 32 32 0 0 1 13.28 2.72 32 32 0 0 1 17.12 17.6 37.28 37.28 0 0 1 2.72 16 38.24 38.24 0 0 1-1.6 11.52 49.92 49.92 0 0 1-5.44 11.2 48 48 0 0 1-9.6 11.04l-21.44 17.6a169.92 169.92 0 0 0-21.92 20.16 99.68 99.68 0 0 0-12 18.24 91.52 91.52 0 0 0-10.72 38.24 39.36 39.36 0 0 0 0 12 13.28 13.28 0 0 0 3.36 6.88 17.28 17.28 0 0 0 7.52 3.36 62.08 62.08 0 0 0 16 1.12h64a9.28 9.28 0 0 0 9.44-8.48 8.48 8.48 0 0 0-2.4-5.6 8.64 8.64 0 0 0-6.56-3.04zM776.8 829.76a35.68 35.68 0 0 1-11.52 7.52 27.84 27.84 0 0 1-13.44 2.08 32.96 32.96 0 0 1-17.92-7.36 27.84 27.84 0 0 1-10.88-16l-4.8-17.92a5.44 5.44 0 0 0-3.84-3.2 16 16 0 0 0-4.48-0.96 8.48 8.48 0 0 0-5.76 2.56 10.56 10.56 0 0 0-2.72 7.2 31.04 31.04 0 0 0 1.12 9.6 70.88 70.88 0 0 0 4.96 13.12 51.84 51.84 0 0 0 10.72 14.4 50.56 50.56 0 0 0 16 10.56 48 48 0 0 0 18.88 3.52 49.44 49.44 0 0 0 13.12-1.92 56.32 56.32 0 0 0 13.44-5.76 50.88 50.88 0 0 0 10.88-8.32 48 48 0 0 0 8.16-12.32 62.56 62.56 0 0 0 5.28-14.88 88.32 88.32 0 0 0 1.6-16 84 84 0 0 0-1.28-14.72 44.16 44.16 0 0 0-6.4-16 36.32 36.32 0 0 0-12-12.32l-8.32-4.64a4.16 4.16 0 0 1-1.6-1.6c0-0.96 1.12-2.56 5.12-4.64a27.36 27.36 0 0 0 8.64-6.4 58.88 58.88 0 0 0 5.6-8.64 49.28 49.28 0 0 0 4.64-11.68 59.36 59.36 0 0 0 1.76-13.76 52.64 52.64 0 0 0-3.84-21.6 49.44 49.44 0 0 0-10.88-16 45.6 45.6 0 0 0-16-10.24 55.36 55.36 0 0 0-19.04-2.08 49.12 49.12 0 0 0-16 3.04 40.48 40.48 0 0 0-14.24 8.8 46.88 46.88 0 0 0-8.32 10.08q-2.56 4.48-5.28 10.72a32 32 0 0 0-4.16 14.56 12 12 0 0 0 2.72 6.88 7.2 7.2 0 0 0 5.76 2.4 9.12 9.12 0 0 0 4.96-1.12 8.32 8.32 0 0 0 2.4-3.2l3.2-13.12a29.28 29.28 0 0 1 11.2-16 32 32 0 0 1 17.76-7.04 32 32 0 0 1 23.04 9.6A35.2 35.2 0 0 1 785.6 704a32 32 0 0 1-6.08 23.04A63.04 63.04 0 0 1 768 736a40.8 40.8 0 0 1-8.96 4.16 32 32 0 0 1-9.76 1.12h-14.56a36.16 36.16 0 0 0-8.64 0 10.24 10.24 0 0 0-4.16 2.56 6.72 6.72 0 0 0-1.92 5.12 7.2 7.2 0 0 0 2.24 5.6 8.32 8.32 0 0 0 6.4 2.24h24.32a48 48 0 0 1 11.84 2.72 34.56 34.56 0 0 1 13.76 8.48 37.92 37.92 0 0 1 8.96 16 57.6 57.6 0 0 1 1.76 16 40.32 40.32 0 0 1-3.68 16 48 48 0 0 1-8.8 13.76z" p-id="26251" fill="#2f89fc"></path></svg>