<?xml version="1.0" standalone="no"?><!DOCTYPE svg PUBLIC "-//W3C//DTD SVG 1.1//EN" "http://www.w3.org/Graphics/SVG/1.1/DTD/svg11.dtd"><svg t="1532582368353" class="icon" style="" viewBox="0 0 1024 1024" version="1.1" xmlns="http://www.w3.org/2000/svg" p-id="1224" xmlns:xlink="http://www.w3.org/1999/xlink" width="200" height="200"><defs><style type="text/css"></style></defs><path d="M112 464c-8.8 0-16-7.2-16-16V160c0-8.8 7.2-16 16-16s16 7.2 16 16v288c0 8.8-7.2 16-16 16zM912 176H752c-8.8 0-16 7.2-16 16s7.2 16 16 16h144v144c0 8.8 7.2 16 16 16s16-7.2 16-16V192c0-8.8-7.2-16-16-16z" fill="" p-id="1225"></path><path d="M861.5 251.5c-5.4-7-15.4-8.3-22.4-2.9L538.6 480.2 436 351.6c-0.6-0.7-1.3-1.1-2-1.7-0.8-0.7-1.5-1.5-2.4-2-0.9-0.5-1.8-0.8-2.8-1.1-1-0.4-1.9-0.8-3-0.9-0.9-0.1-1.9 0-2.8 0-1.1 0-2.2 0-3.3 0.3-1 0.2-1.9 0.8-2.8 1.2-0.8 0.4-1.7 0.5-2.5 1.1L102.9 562.8c-0.4 0.3-0.6 0.7-1 1-0.8 0.7-1.6 1.5-2.3 2.3-0.6 0.8-1.2 1.6-1.7 2.5-0.5 0.9-0.8 1.8-1.1 2.8-0.3 1.1-0.5 2.1-0.6 3.2 0 0.5-0.3 0.9-0.3 1.4v288c0 8.8 7.2 16 16 16s16-7.2 16-16V584.4l292.3-201.2 103.2 129.3c1 1.3 2.4 2 3.7 2.9 0.7 0.5 1.2 1.2 1.9 1.5 2.2 1 4.5 1.6 6.9 1.6 1.7 0 3.5-0.3 5.1-0.8 0.6-0.2 1.2-0.7 1.8-1 1-0.5 2-0.8 2.8-1.5l0.2-0.2 312.6-241c7.2-5.4 8.5-15.5 3.1-22.5z" fill="" p-id="1226"></path><path d="M400 880H272c-8.8 0-16-7.2-16-16V736c0-8.8 7.2-16 16-16h128c8.8 0 16 7.2 16 16v128c0 8.8-7.2 16-16 16z m-112-32h96v-96h-96v96zM624 880H496c-8.8 0-16-7.2-16-16V640c0-8.8 7.2-16 16-16h128c8.8 0 16 7.2 16 16v224c0 8.8-7.2 16-16 16z m-112-32h96V656h-96v192z" fill="" p-id="1227"></path><path d="M848 880H720c-8.8 0-16-7.2-16-16V544c0-8.8 7.2-16 16-16h128c8.8 0 16 7.2 16 16v320c0 8.8-7.2 16-16 16z m-112-32h96V560h-96v288z" fill="#0F82E4" p-id="1228"></path></svg>