<?xml version="1.0" standalone="no"?><!DOCTYPE svg PUBLIC "-//W3C//DTD SVG 1.1//EN" "http://www.w3.org/Graphics/SVG/1.1/DTD/svg11.dtd"><svg t="1532582342353" class="icon" style="" viewBox="0 0 1024 1024" version="1.1" xmlns="http://www.w3.org/2000/svg" p-id="963" xmlns:xlink="http://www.w3.org/1999/xlink" width="200" height="200"><defs><style type="text/css"></style></defs><path d="M848 928H176c-44.1 0-80-35.9-80-80V176c0-44.1 35.9-80 80-80h464c8.8 0 16 7.2 16 16s-7.2 16-16 16H176c-26.5 0-48 21.5-48 48v672c0 26.5 21.5 48 48 48h672c26.5 0 48-21.5 48-48V384c0-8.8 7.2-16 16-16s16 7.2 16 16v464c0 44.1-35.9 80-80 80z" fill="#333333" p-id="964"></path><path d="M895.8 120c-15.1-15.1-35.1-23.4-56.5-23.4-21.3 0-41.4 8.3-56.5 23.4L454.6 448.3c-2.3 2.3-3.8 5.1-4.4 8.2l-22.4 113.2c-1 5.3 0.6 10.7 4.4 14.4 3 3 7.1 4.7 11.3 4.7 1 0 2.1-0.1 3.2-0.3l112.9-22.7c3.1-0.6 5.9-2.2 8.2-4.4L896 233.1c31.2-31.1 31.2-81.8-0.2-113.1zM548.5 535.3l-84.6 17 16.8-84.9 290.8-290.8 67.9 67.9-290.9 290.8z m324.9-324.8L862 221.9 794.1 154l11.4-11.4c18.1-18.1 49.5-18.3 67.9 0.2 18.7 18.6 18.7 49 0 67.7z" fill="#333333" p-id="965"></path><path d="M704 672H320c-8.8 0-16-7.2-16-16s7.2-16 16-16h384c8.8 0 16 7.2 16 16s-7.2 16-16 16z" fill="#0F82E4" p-id="966"></path><path d="M704 768H320c-8.8 0-16-7.2-16-16s7.2-16 16-16h384c8.8 0 16 7.2 16 16s-7.2 16-16 16z" fill="#333333" p-id="967"></path></svg>