<?xml version="1.0" standalone="no"?><!DOCTYPE svg PUBLIC "-//W3C//DTD SVG 1.1//EN" "http://www.w3.org/Graphics/SVG/1.1/DTD/svg11.dtd"><svg t="1536757762824" class="icon" style="" viewBox="0 0 1024 1024" version="1.1" xmlns="http://www.w3.org/2000/svg" p-id="18520" xmlns:xlink="http://www.w3.org/1999/xlink" width="64" height="64"><defs><style type="text/css"></style></defs><path d="M512 298.666667a213.333333 213.333333 0 0 1 213.333333 213.333333 213.333333 213.333333 0 0 1-213.333333 213.333333 213.333333 213.333333 0 0 1-213.333333-213.333333 213.333333 213.333333 0 0 1 213.333333-213.333333m0 85.333333a128 128 0 0 0-128 128 128 128 0 0 0 128 128 128 128 0 0 0 128-128 128 128 0 0 0-128-128m-42.666667-170.666667V128h85.333334v85.333333h-85.333334z" fill="#2f89fc" p-id="18521"></path></svg>