<?xml version="1.0" standalone="no"?><!DOCTYPE svg PUBLIC "-//W3C//DTD SVG 1.1//EN" "http://www.w3.org/Graphics/SVG/1.1/DTD/svg11.dtd"><svg t="1538874073214" class="icon" style="" viewBox="0 0 1025 1024" version="1.1" xmlns="http://www.w3.org/2000/svg" p-id="21200" xmlns:xlink="http://www.w3.org/1999/xlink" width="88.0859375" height="88"><defs><style type="text/css"></style></defs><path d="M619.6 427.4c-31.6 9.4-53.1 29.6-65.5 61.8-11.6 30.1-13.2 65.9-13.3 93.7-0.1 74.3-15.4 109.1-52.7 120.2-38.6 11.5-79.4-10.6-90.9-49.2s10.6-79.4 49.2-90.9c9.5-2.8 15-12.9 12.1-22.4-2.8-9.5-12.9-15-22.4-12.1-57.7 17.2-90.7 78.1-73.5 135.8 17.2 57.7 78.1 90.7 135.8 73.5 31.6-9.4 52.9-29.5 65.3-61.5 11.6-30 13.2-65.5 13.2-93.1 0.2-74.7 15.5-109.7 52.9-120.9 38.6-11.5 79.4 10.6 90.9 49.2s-10.6 79.4-49.2 90.9c-9.5 2.8-15 12.9-12.1 22.4 2.8 9.5 12.9 15 22.4 12.1 57.7-17.2 90.7-78.1 73.5-135.8-17.1-57.8-78-90.8-135.7-73.7z" fill="#0F82E4" p-id="21201"></path><path d="M234.1 472.9c-1.2 0-2.3-0.1-3.5-0.3-9.6-2-15.8-11.2-13.8-20.8 17.9-87.9 71.2-166.6 146.4-216.1 8.2-5.4 19.1-3.1 24.5 5.1 5.4 8.2 3.1 19.1-5.1 24.5-67.5 44.3-115.3 115-131.3 193.6-1.7 8.2-9.1 14-17.2 14zM232.9 596c-8.4 0-15.8-6-17.3-14.4-3.8-20.3-5.6-41-5.6-61.9 0-9.7 7.9-17.6 17.6-17.6 9.7 0 17.6 7.9 17.6 17.6 0 18.6 1.7 37.3 5.1 55.5 1.8 9.6-4.5 18.7-14.1 20.5-1.1 0.2-2.2 0.3-3.3 0.3z m0 0M79.1 716.2c-41-6.2-72.2-22.4-76.6-56.5-3.4-26.5 0.2-58.6 38.6-87.3 6.9-5.2 20.6-3.8 24.6 3.6 4.1 7.4 0.5 17.5-7.5 23.4C35.7 616 33 640.3 34.4 651.8c3.7 28.8 66.7 50.7 240.6 11.8 7.3-1.7 13.6 4.8 14.2 14.4 0.5 9.6-4.9 18.6-12.1 20.2-41.1 9.3-126.9 28.7-198 18zM837.8 486.4c-5.3 0-10.3-3.5-12.8-9.7-3.6-8.7-0.7-19.3 6.4-23.7C1000.2 348.7 998 288.5 990.2 263.8c-3.5-11.1-18.1-21-44.8-23.2-7.9-0.7-16.4-9.2-15.9-18.9 0.5-9.7 10-17.2 17.8-16.3 40.4 3.3 64.4 18.3 73.1 43.8 32.5 95.3-99.7 188-176.3 235.4-2 1.3-4.1 1.8-6.3 1.8z" fill="#333333" p-id="21202"></path><path d="M534.9 956c-167.1 0-317.9-92.6-393.5-241.7-4.4-8.7-1-19.3 7.7-23.7 8.7-4.4 19.3-0.9 23.7 7.7 69.6 137.2 208.4 222.4 362.1 222.4 223.7 0 405.8-182 405.8-405.8 0-36.9-5-73.5-14.8-108.8-2.6-9.4 2.9-19.1 12.2-21.7 9.5-2.5 19.1 2.9 21.7 12.2 10.7 38.4 16 78.1 16 118.2C975.9 758.2 778 956 534.9 956zM133.3 667.3c-7.4 0-14.2-4.6-16.8-12C101.4 610.2 93.7 563 93.7 515c0-243.2 197.8-441 441-441 170.2 0 322.3 95.2 396.8 248.3 4.2 8.7 0.5 19.3-8.2 23.6-8.7 4.2-19.3 0.7-23.6-8.2-68.5-140.9-208.4-228.5-365-228.5-223.7 0-405.8 182-405.8 405.8 0 44.1 7.1 87.5 20.9 129 3.1 9.3-1.9 19.2-11.1 22.4-1.7 0.5-3.5 0.9-5.4 0.9z m0 0" fill="#333333" p-id="21203"></path></svg>