<?xml version="1.0" standalone="no"?><!DOCTYPE svg PUBLIC "-//W3C//DTD SVG 1.1//EN" "http://www.w3.org/Graphics/SVG/1.1/DTD/svg11.dtd"><svg t="1532663428417" class="icon" style="" viewBox="0 0 1024 1024" version="1.1" xmlns="http://www.w3.org/2000/svg" p-id="965" xmlns:xlink="http://www.w3.org/1999/xlink" width="200" height="200"><defs><style type="text/css"></style></defs><path d="M266 894c0-3.4 0.5-6.7 1.1-9.9-0.3 3.6-1.1 7.1-1.1 10.7v-0.8zM314.7 936c-2 0-4.2 0.5-6.4 0.5s-4.2-0.5-6.3-0.5h12.7z" fill="#008FF9" p-id="966"></path><path d="M704 178c-3.7 0-7.5-1.3-10.5-3.9-8.1-7.1-16.7-13.8-25.6-19.9-7.3-5-9.1-15-4.1-22.3 5-7.3 15-9.1 22.3-4.1 9.9 6.8 19.5 14.3 28.5 22.1 6.7 5.8 7.3 15.9 1.5 22.6-3.2 3.7-7.6 5.5-12.1 5.5z" fill="#333333" p-id="967"></path><path d="M513.3 548.4c-63.9 0-122.3-35.1-152.5-91.5-4.2-7.8-1.2-17.5 6.6-21.7 7.8-4.2 17.5-1.3 21.7 6.6 24.6 46 72.3 74.6 124.3 74.6 52.1 0 99.7-28.6 124.3-74.5 4.2-7.8 13.8-10.7 21.7-6.6 7.8 4.2 10.7 13.9 6.6 21.7-30.4 56.4-88.8 91.4-152.7 91.4z" fill="#0F82E4" p-id="968"></path><path d="M943.6 540.3c0-87.3-48.2-165.7-125.9-205.5-9.4-56.4-34-109.6-71.8-153.3-5.8-6.7-15.9-7.4-22.6-1.7-6.7 5.8-7.4 15.9-1.7 22.6 44.2 51.1 68.5 116.6 68.5 184.3 0 100.7-54.5 194.5-142.2 244.7-2.1 1.2-3.8 2.8-5.1 4.7l-10.7 5.9 12.5 14.9c47.6 56.7 80.8 126.7 95.1 199.4 2 10.4 3.7 20.8 5 31.3 0.2 2.1 0.6 4.8 1 7.4 0.3 1.9 0.6 3.8 0.9 6.5 0.3 1.8 0.3 3.5 0.2 5.1-0.1 0.9-0.2 1.8-0.4 2.7-0.1 0.5-0.2 1-0.3 1.4-0.8 2.7-2 5.2-3.9 7.7l-1.6 2.1c-5 5.4-10.8 7.6-13.5 7.6H302c-9.3 0-12.7-3.6-13.9-4.8-4.4-4.6-6.6-13.3-6.1-22.9l1-14.3c10-83 43.5-161.3 96.9-226.4 0.6-0.7 0.8-1.7 1.3-2.5l11.1-13.5-17.2-9.2c-91.9-49.2-149-144.2-149.1-248 0-7.4 0.6-14.6 1.1-21.8 0.4-4.5 0.8-9 1.4-14 17.8-138.5 136.2-246 279.5-246 43.8 0 85.8 9.8 124.8 29.1 7.9 3.9 17.5 0.7 21.4-7.2 3.9-7.9 0.7-17.5-7.3-21.4-43.4-21.5-90.2-32.4-139-32.4-156.4 0-286.1 115.1-309.8 265C123.6 378.1 77.5 455 77.5 540.3c0 78.9 40 151.7 105.7 194-43.4 57-64.5 111.1-64.5 164.7 0 40.6 28.7 45 41.1 45h104.1c0.3 0.4 0.6 0.8 1 1.2 6.4 6.8 18 14.8 37.1 14.8h425.1c12.1 0 25-6.2 34.9-16h99.3c12.4 0 41.1-4.4 41.1-45 0-53.7-21.1-107.7-64.5-164.7 65.6-42.4 105.7-115.1 105.7-194zM250.3 912h-90.5c-6.1 0-9.1 0-9.1-13 0-50.5 22.5-102.5 68.8-159l12.3-15-17.2-9.2c-64.8-34.8-105.1-102-105.1-175.5 0-65.8 30.8-125.8 83.7-162.8-0.1 3-1.2 5.8-1.2 8.7v0.5c0 109.4 57.7 210.1 150.1 267.2-50.3 66.7-81.4 144.6-91.4 227-0.2 1.9-0.1 5.3-0.3 8.7-0.2 3.1 2.8 6.2 2.6 8.4-0.1 0.9 3 2.5 3 4.4v0.4c0 2.5-6 5.7-5.7 9.2z m620.1-13c0 13-3 13-9.1 13h-82.8c0.1-0.6 0.1-1.3 0.1-1.9 0.1-0.9 0.1-1.8 0.2-2.7 0.1-3.3 0.1-6.6-0.5-9.8-0.2-2.1-0.6-4.8-1-7.4-0.3-1.9-0.6-3.8-0.8-5.8-1.3-10.5-2.9-21-4.9-31.5-1.5-7.8-3.4-15.6-5.3-23.3-0.6-2.6-1.1-5.2-1.8-7.8-2.5-9.4-5.3-18.8-8.4-28.1-0.3-0.8-0.5-1.7-0.7-2.5-3.3-9.9-7-19.7-10.9-29.4-0.1-0.2-0.1-0.4-0.2-0.5-8-19.6-17.4-38.7-27.9-57-0.1-0.1-0.1-0.2-0.2-0.3-5.2-9-10.7-17.8-16.4-26.5-0.1-0.2-0.3-0.4-0.4-0.7-5.6-8.4-11.5-16.6-17.7-24.7-0.3-0.4-0.5-0.8-0.8-1.1C771.5 593.5 827 493.8 827 386.2c0-2.9 0-5.8-0.2-8.7 52.9 36.9 84.7 97 84.7 162.8 0 73.5-40.3 140.7-105.1 175.5l-17.1 9.2 12.3 15c46.3 56.4 68.8 108.5 68.8 159z" fill="#333333" p-id="969"></path></svg>